<?xml version="1.0" encoding="utf-8"?>
<!-- Generator: Adobe Illustrator 19.0.1, SVG Export Plug-In . SVG Version: 6.00 Build 0)  -->
<svg version="1.1" id="Layer_1" xmlns="http://www.w3.org/2000/svg" xmlns:xlink="http://www.w3.org/1999/xlink" x="0px" y="0px"
	 viewBox="0 0 808.7 140.2" style="enable-background:new 0 0 808.7 140.2;" xml:space="preserve">
<style type="text/css">
	.st0{fill:#AF0000;}
	.st1{fill:#ED0B00;}
	.st2{fill:#042023;}
</style>
<path id="path3071_3_" class="st0" d="M133.4,25.7C66.4,23.4,11.2,42.1,10.6,66.8c-0.9,24.7,52.5,46.7,119.6,49.1
	c67.3,2.4,122-16.2,122.5-41.1C253.9,50.1,200.1,28.3,133.4,25.7z M261.5,71.2c0,28.5-58.2,51.5-130.2,51.5
	C59.4,123,1.2,99.7,1.2,71.2c0-28.2,58.2-51.5,130.2-51.5S261.5,43,261.5,71.2"/>
<g>
	<path id="path3071_2_" class="st1" d="M132.2,25.1C65.3,22.8,10,41.5,9.5,66.2C8.5,90.9,62,112.9,129.1,115.3
		c67.3,2.4,122-16.2,122.5-41.1C252.7,49.5,198.9,27.7,132.2,25.1z M260.3,70.6c0,28.5-58.2,51.5-130.2,51.5
		C58.2,122.4,0,99.1,0,70.6c0-28.2,58.2-51.5,130.2-51.5S260.3,42.4,260.3,70.6"/>
	<path id="path3073_2_" class="st1" d="M79.1,29.5c0,9.1-7.6,16.7-16.7,16.7s-16.5-7.6-16.5-16.7s7.6-16.7,16.7-16.7
		C72,12.8,79.1,20.4,79.1,29.5"/>
	<path id="path3075_2_" class="st1" d="M191.6,116.8c0,12.9-10.5,23.5-23.5,23.5s-23.3-10.5-23.3-23.5s10.5-23.5,23.5-23.5
		C181.3,93.3,191.6,103.9,191.6,116.8"/>
	<path id="path3077_2_" class="st1" d="M156.9,20.4c0,6.7-5.3,12.4-12.4,12.4c-6.7,0-12.4-5.3-12.4-12.4c0-6.7,5.3-12.4,12.4-12.4
		C151.1,8.6,156.9,13.7,156.9,20.4"/>
</g>
<g>
	<path class="st2" d="M293.8,90.9l1.3,6.6l1.7-6.9l18.4-58.5h7.2l18.2,58l2,8.1l1.6-7.4l15.7-58.6h8.8l-22.3,76.4h-7.2l-19.6-60.6
		l-0.9-4.2l-0.9,4.2l-19.3,60.6h-7.2l-22.2-76.4h8.7L293.8,90.9z"/>
	<path class="st2" d="M379.9,69.2c0-7.3,1.4-14,4.3-19.9c2.8-5.9,6.9-10.5,12.1-13.7c5.2-3.3,11.1-4.9,17.7-4.9
		c10.2,0,18.4,3.6,24.7,10.7c6.3,7.1,9.5,16.6,9.5,28.4v1.8c0,7.4-1.4,14-4.3,20c-2.9,5.9-6.9,10.5-12,13.7
		c-5.2,3.2-11.1,4.8-17.7,4.8c-10.1,0-18.4-3.6-24.7-10.7c-6.3-7.1-9.5-16.6-9.5-28.4V69.2z M388.4,71.5c0,9.1,2.4,16.6,7.1,22.5
		c4.7,5.9,10.9,8.8,18.6,8.8c7.6,0,13.8-2.9,18.5-8.8c4.7-5.9,7.1-13.6,7.1-23.2v-1.6c0-5.8-1.1-11.2-3.3-16
		c-2.2-4.9-5.2-8.6-9.1-11.3c-3.9-2.7-8.4-4-13.4-4c-7.5,0-13.7,3-18.4,8.9c-4.8,5.9-7.1,13.6-7.1,23.2V71.5z"/>
	<path class="st2" d="M501,39.3c-1.8-0.3-3.7-0.5-5.7-0.5c-5.3,0-9.7,1.5-13.4,4.4c-3.7,2.9-6.3,7.2-7.8,12.8v52.5h-8.4V32.1h8.3
		l0.1,12.2c4.5-9,11.7-13.6,21.5-13.6c2.4,0,4.2,0.3,5.6,0.9L501,39.3z"/>
	<path class="st2" d="M523.8,108.5h-8.5V0h8.5V108.5z"/>
	<path class="st2" d="M543.4,69.6c0-11.9,2.7-21.3,7.9-28.4c5.3-7,12.5-10.6,21.6-10.6c10.3,0,18.2,4.1,23.6,12.2V0h8.4v108.5H597
		l-0.4-10.2c-5.4,7.7-13.4,11.6-23.9,11.6c-8.8,0-15.9-3.5-21.3-10.6c-5.4-7.1-8.1-16.7-8.1-28.7V69.6z M551.9,71.1
		c0,9.8,2,17.4,5.9,23.1c3.9,5.6,9.4,8.4,16.5,8.4c10.4,0,17.8-4.6,22.2-13.8V52.9c-4.4-9.9-11.7-14.9-22-14.9
		c-7.1,0-12.6,2.8-16.6,8.4C553.9,52,551.9,60.2,551.9,71.1z"/>
	<path class="st2" d="M632.1,49.9c2.5-5.9,6.2-10.6,11-14.1c4.9-3.4,10.2-5.2,16.1-5.2c8.2,0,14.3,2.3,18.3,7c4,4.6,6,11.6,6,21
		v49.9h-3.8v-50c0-8.2-1.7-14.2-5-18.2c-3.3-3.9-8.5-5.9-15.7-5.9c-6.6,0-12.3,2.3-17.1,7c-4.8,4.7-8.1,10.7-9.8,18.1v48.9h-3.8
		V32.1h3.8V49.9z"/>
	<path class="st2" d="M735,109.9c-6.2,0-11.8-1.7-17-5c-5.2-3.3-9.2-7.9-12.1-13.7c-2.9-5.8-4.4-12.2-4.4-19.3v-3.2
		c0-7.1,1.4-13.5,4.2-19.4c2.8-5.9,6.7-10.5,11.7-13.8c4.9-3.3,10.3-4.9,16.2-4.9c8.5,0,15.5,3,20.9,9.1c5.4,6.1,8.1,14.1,8.1,24v4
		h-57.3v4.2c0,6.2,1.3,12,3.9,17.2c2.6,5.3,6.2,9.4,10.8,12.4c4.6,3,9.6,4.5,14.9,4.5c5.1,0,9.5-0.9,13.1-2.6
		c3.6-1.7,6.8-4.3,9.6-7.9l2.7,1.9C754.6,105.8,746.2,109.9,735,109.9z M733.6,34.5c-7.4,0-13.8,2.8-18.9,8.3
		c-5.2,5.5-8.2,12.6-9.1,21.2h53.3V63c0-5.2-1.1-10-3.3-14.4c-2.2-4.5-5.2-7.9-9-10.4C742.6,35.7,738.3,34.5,733.6,34.5z"/>
	<path class="st2" d="M789,11.4v20.6h17.4v3.8H789v54.3c0,5.4,0.9,9.4,2.6,12c1.8,2.6,4.7,3.9,8.9,3.9c2.1,0,4.6-0.2,7.6-0.6
		l0.6,3.6c-1.6,0.6-4.2,0.8-8,0.8c-5.6,0-9.5-1.5-11.9-4.6c-2.4-3.1-3.6-8-3.7-14.6V35.9h-14.1v-3.8h14.1V11.4H789z"/>
</g>
</svg>
